<mxfile host="app.diagrams.net" modified="2022-04-11T02:39:00.212Z" agent="5.0 (Macintosh; Intel Mac OS X 10_15_7) AppleWebKit/537.36 (KHTML, like Gecko) Chrome/100.0.4896.75 Safari/537.36" etag="u7VyVJTtyGdUC2306LEa" version="17.4.0" type="github">
  <diagram id="YAfpATOkKEmAnphD_0X0" name="Page-1">
    <mxGraphModel dx="4425" dy="3070" grid="1" gridSize="10" guides="1" tooltips="1" connect="1" arrows="1" fold="1" page="1" pageScale="1" pageWidth="1654" pageHeight="2336" math="0" shadow="0">
      <root>
        <mxCell id="0" />
        <mxCell id="1" parent="0" />
        <mxCell id="hBpxUwQ70FFy837Izs81-406" value="&lt;b&gt;&lt;font style=&quot;font-size: 14px&quot;&gt;four_bank_mem&lt;br&gt;&lt;/font&gt;&lt;/b&gt;" style="rounded=0;whiteSpace=wrap;html=1;fontColor=#000000;fillColor=none;" parent="1" vertex="1">
          <mxGeometry x="2730" y="290" width="260" height="330" as="geometry" />
        </mxCell>
        <mxCell id="hBpxUwQ70FFy837Izs81-407" value="Addr[15:0]" style="text;html=1;align=center;verticalAlign=middle;resizable=0;points=[];autosize=1;strokeColor=none;fillColor=none;fontColor=#000000;" parent="1" vertex="1">
          <mxGeometry x="2730" y="320" width="70" height="20" as="geometry" />
        </mxCell>
        <mxCell id="hBpxUwQ70FFy837Izs81-408" value="DataIn[15:0]" style="text;html=1;align=center;verticalAlign=middle;resizable=0;points=[];autosize=1;strokeColor=none;fillColor=none;fontColor=#000000;" parent="1" vertex="1">
          <mxGeometry x="2730" y="350" width="80" height="20" as="geometry" />
        </mxCell>
        <mxCell id="hBpxUwQ70FFy837Izs81-409" value="wr" style="text;html=1;align=center;verticalAlign=middle;resizable=0;points=[];autosize=1;strokeColor=none;fillColor=none;fontColor=#000000;" parent="1" vertex="1">
          <mxGeometry x="2730" y="380" width="30" height="20" as="geometry" />
        </mxCell>
        <mxCell id="hBpxUwQ70FFy837Izs81-410" value="rd" style="text;html=1;align=center;verticalAlign=middle;resizable=0;points=[];autosize=1;strokeColor=none;fillColor=none;fontColor=#000000;" parent="1" vertex="1">
          <mxGeometry x="2730" y="410" width="30" height="20" as="geometry" />
        </mxCell>
        <mxCell id="hBpxUwQ70FFy837Izs81-411" value="clk" style="text;html=1;align=center;verticalAlign=middle;resizable=0;points=[];autosize=1;strokeColor=none;fillColor=none;fontColor=#000000;" parent="1" vertex="1">
          <mxGeometry x="2730" y="558" width="30" height="20" as="geometry" />
        </mxCell>
        <mxCell id="hBpxUwQ70FFy837Izs81-412" value="rst" style="text;html=1;align=center;verticalAlign=middle;resizable=0;points=[];autosize=1;strokeColor=none;fillColor=none;fontColor=#000000;" parent="1" vertex="1">
          <mxGeometry x="2730" y="578" width="30" height="20" as="geometry" />
        </mxCell>
        <mxCell id="hBpxUwQ70FFy837Izs81-413" value="createdump" style="text;html=1;align=center;verticalAlign=middle;resizable=0;points=[];autosize=1;strokeColor=none;fillColor=none;fontColor=#000000;" parent="1" vertex="1">
          <mxGeometry x="2730" y="598" width="80" height="20" as="geometry" />
        </mxCell>
        <mxCell id="hBpxUwQ70FFy837Izs81-415" value="DataOut [15:0]" style="text;html=1;align=center;verticalAlign=middle;resizable=0;points=[];autosize=1;strokeColor=none;fillColor=none;fontColor=#000000;" parent="1" vertex="1">
          <mxGeometry x="2895" y="390" width="90" height="20" as="geometry" />
        </mxCell>
        <mxCell id="hBpxUwQ70FFy837Izs81-416" value="stall" style="text;html=1;align=center;verticalAlign=middle;resizable=0;points=[];autosize=1;strokeColor=none;fillColor=none;fontColor=#000000;" parent="1" vertex="1">
          <mxGeometry x="2950" y="420" width="40" height="20" as="geometry" />
        </mxCell>
        <mxCell id="hBpxUwQ70FFy837Izs81-417" value="Busy [3:0]" style="text;html=1;align=center;verticalAlign=middle;resizable=0;points=[];autosize=1;strokeColor=none;fillColor=none;fontColor=#000000;" parent="1" vertex="1">
          <mxGeometry x="2915" y="450" width="70" height="20" as="geometry" />
        </mxCell>
        <mxCell id="hBpxUwQ70FFy837Izs81-418" value="err_mem" style="text;html=1;align=center;verticalAlign=middle;resizable=0;points=[];autosize=1;strokeColor=none;fillColor=none;fontColor=#000000;" parent="1" vertex="1">
          <mxGeometry x="2930" y="480" width="60" height="20" as="geometry" />
        </mxCell>
        <mxCell id="hBpxUwQ70FFy837Izs81-419" value="&lt;span style=&quot;font-size: 14px&quot;&gt;&lt;b&gt;cache&lt;br&gt;Datapath&lt;br&gt;&lt;br&gt;256 lines&lt;br&gt;by 4 words&lt;br&gt;&lt;/b&gt;&lt;/span&gt;" style="rounded=0;whiteSpace=wrap;html=1;fontColor=#000000;fillColor=none;" parent="1" vertex="1">
          <mxGeometry x="2004" y="290" width="254" height="440" as="geometry" />
        </mxCell>
        <mxCell id="hBpxUwQ70FFy837Izs81-420" value="enable" style="text;html=1;align=center;verticalAlign=middle;resizable=0;points=[];autosize=1;strokeColor=none;fillColor=none;fontColor=#000000;" parent="1" vertex="1">
          <mxGeometry x="2004" y="320" width="50" height="20" as="geometry" />
        </mxCell>
        <mxCell id="hBpxUwQ70FFy837Izs81-422" value="offset[2:0]" style="text;html=1;align=center;verticalAlign=middle;resizable=0;points=[];autosize=1;strokeColor=none;fillColor=none;fontColor=#000000;" parent="1" vertex="1">
          <mxGeometry x="2003" y="400" width="70" height="20" as="geometry" />
        </mxCell>
        <mxCell id="hBpxUwQ70FFy837Izs81-427" value="hit" style="text;html=1;align=center;verticalAlign=middle;resizable=0;points=[];autosize=1;strokeColor=none;fillColor=none;fontColor=#000000;" parent="1" vertex="1">
          <mxGeometry x="2218" y="390" width="30" height="20" as="geometry" />
        </mxCell>
        <mxCell id="hBpxUwQ70FFy837Izs81-428" value="dirty" style="text;html=1;align=center;verticalAlign=middle;resizable=0;points=[];autosize=1;strokeColor=none;fillColor=none;fontColor=#000000;" parent="1" vertex="1">
          <mxGeometry x="2213" y="420" width="40" height="20" as="geometry" />
        </mxCell>
        <mxCell id="hBpxUwQ70FFy837Izs81-429" value="tag_out[4:0]" style="text;html=1;align=center;verticalAlign=middle;resizable=0;points=[];autosize=1;strokeColor=none;fillColor=none;fontColor=#000000;" parent="1" vertex="1">
          <mxGeometry x="2178" y="450" width="80" height="20" as="geometry" />
        </mxCell>
        <mxCell id="hBpxUwQ70FFy837Izs81-430" value="data_out[13:0]" style="text;html=1;align=center;verticalAlign=middle;resizable=0;points=[];autosize=1;strokeColor=none;fillColor=none;fontColor=#000000;" parent="1" vertex="1">
          <mxGeometry x="2168" y="480" width="90" height="20" as="geometry" />
        </mxCell>
        <mxCell id="hBpxUwQ70FFy837Izs81-431" value="comp" style="text;html=1;align=center;verticalAlign=middle;resizable=0;points=[];autosize=1;strokeColor=none;fillColor=none;fontColor=#000000;" parent="1" vertex="1">
          <mxGeometry x="2003" y="440" width="50" height="20" as="geometry" />
        </mxCell>
        <mxCell id="hBpxUwQ70FFy837Izs81-433" value="index[7:0]" style="text;html=1;align=center;verticalAlign=middle;resizable=0;points=[];autosize=1;strokeColor=none;fillColor=none;fontColor=#000000;" parent="1" vertex="1">
          <mxGeometry x="2003" y="380" width="70" height="20" as="geometry" />
        </mxCell>
        <mxCell id="hBpxUwQ70FFy837Izs81-434" value="write" style="text;html=1;align=center;verticalAlign=middle;resizable=0;points=[];autosize=1;strokeColor=none;fillColor=none;fontColor=#000000;" parent="1" vertex="1">
          <mxGeometry x="2008" y="470" width="40" height="20" as="geometry" />
        </mxCell>
        <mxCell id="hBpxUwQ70FFy837Izs81-435" value="valid_in" style="text;html=1;align=center;verticalAlign=middle;resizable=0;points=[];autosize=1;strokeColor=none;fillColor=none;fontColor=#000000;" parent="1" vertex="1">
          <mxGeometry x="2004" y="530" width="60" height="20" as="geometry" />
        </mxCell>
        <mxCell id="hBpxUwQ70FFy837Izs81-436" value="data_in[63:0]" style="text;html=1;align=center;verticalAlign=middle;resizable=0;points=[];autosize=1;strokeColor=none;fillColor=none;fontColor=#000000;" parent="1" vertex="1">
          <mxGeometry x="2003" y="500" width="90" height="20" as="geometry" />
        </mxCell>
        <mxCell id="hBpxUwQ70FFy837Izs81-437" value="tag_in[4:0]" style="text;html=1;align=center;verticalAlign=middle;resizable=0;points=[];autosize=1;strokeColor=none;fillColor=none;fontColor=#000000;" parent="1" vertex="1">
          <mxGeometry x="2004" y="360" width="70" height="20" as="geometry" />
        </mxCell>
        <mxCell id="hBpxUwQ70FFy837Izs81-442" value="clk" style="text;html=1;align=center;verticalAlign=middle;resizable=0;points=[];autosize=1;strokeColor=none;fillColor=none;fontColor=#000000;" parent="1" vertex="1">
          <mxGeometry x="2008" y="610" width="30" height="20" as="geometry" />
        </mxCell>
        <mxCell id="hBpxUwQ70FFy837Izs81-443" value="rst" style="text;html=1;align=center;verticalAlign=middle;resizable=0;points=[];autosize=1;strokeColor=none;fillColor=none;fontColor=#000000;" parent="1" vertex="1">
          <mxGeometry x="2008" y="640" width="30" height="20" as="geometry" />
        </mxCell>
        <mxCell id="hBpxUwQ70FFy837Izs81-444" value="createdump" style="text;html=1;align=center;verticalAlign=middle;resizable=0;points=[];autosize=1;strokeColor=none;fillColor=none;fontColor=#000000;" parent="1" vertex="1">
          <mxGeometry x="2008" y="670" width="80" height="20" as="geometry" />
        </mxCell>
        <mxCell id="hBpxUwQ70FFy837Izs81-445" value="valid_out" style="text;html=1;align=center;verticalAlign=middle;resizable=0;points=[];autosize=1;strokeColor=none;fillColor=none;fontColor=#000000;" parent="1" vertex="1">
          <mxGeometry x="2198" y="510" width="60" height="20" as="geometry" />
        </mxCell>
        <mxCell id="hBpxUwQ70FFy837Izs81-446" value="err_cache" style="text;html=1;align=center;verticalAlign=middle;resizable=0;points=[];autosize=1;strokeColor=none;fillColor=none;fontColor=#000000;" parent="1" vertex="1">
          <mxGeometry x="2188" y="640" width="70" height="20" as="geometry" />
        </mxCell>
        <mxCell id="hBpxUwQ70FFy837Izs81-447" value="&lt;b&gt;Cache Controller&lt;/b&gt;" style="rounded=0;whiteSpace=wrap;html=1;fontSize=14;fontColor=#000000;fillColor=none;" parent="1" vertex="1">
          <mxGeometry x="1990" y="830" width="310" height="380" as="geometry" />
        </mxCell>
        <mxCell id="hBpxUwQ70FFy837Izs81-458" value="comp" style="text;html=1;align=center;verticalAlign=middle;resizable=0;points=[];autosize=1;strokeColor=none;fillColor=none;fontColor=#000000;" parent="1" vertex="1">
          <mxGeometry x="2250" y="840" width="50" height="20" as="geometry" />
        </mxCell>
        <mxCell id="hBpxUwQ70FFy837Izs81-459" value="cache_write" style="text;html=1;align=center;verticalAlign=middle;resizable=0;points=[];autosize=1;strokeColor=none;fillColor=none;fontColor=#000000;" parent="1" vertex="1">
          <mxGeometry x="2218" y="870" width="80" height="20" as="geometry" />
        </mxCell>
        <mxCell id="hBpxUwQ70FFy837Izs81-460" value="Address[15:0]" style="text;html=1;align=center;verticalAlign=middle;resizable=0;points=[];autosize=1;strokeColor=none;fillColor=none;fontSize=14;fontColor=#000000;" parent="1" vertex="1">
          <mxGeometry x="1270" y="280" width="100" height="20" as="geometry" />
        </mxCell>
        <mxCell id="hBpxUwQ70FFy837Izs81-467" value="err" style="text;html=1;align=center;verticalAlign=middle;resizable=0;points=[];autosize=1;strokeColor=none;fillColor=none;fontColor=#000000;" parent="1" vertex="1">
          <mxGeometry x="2265" y="1168" width="30" height="20" as="geometry" />
        </mxCell>
        <mxCell id="hBpxUwQ70FFy837Izs81-469" value="if err, stop writing mem" style="text;html=1;align=center;verticalAlign=middle;resizable=0;points=[];autosize=1;strokeColor=none;fillColor=none;fontSize=14;fontColor=#000000;" parent="1" vertex="1">
          <mxGeometry x="2830" y="700" width="160" height="20" as="geometry" />
        </mxCell>
        <mxCell id="hBpxUwQ70FFy837Izs81-470" value="" style="endArrow=classic;html=1;rounded=0;fontSize=14;fontColor=#000000;entryX=0;entryY=0.75;entryDx=0;entryDy=0;" parent="1" target="hBpxUwQ70FFy837Izs81-419" edge="1">
          <mxGeometry width="50" height="50" relative="1" as="geometry">
            <mxPoint x="1684" y="620" as="sourcePoint" />
            <mxPoint x="1724" y="600" as="targetPoint" />
          </mxGeometry>
        </mxCell>
        <mxCell id="hBpxUwQ70FFy837Izs81-477" value="" style="endArrow=classic;html=1;rounded=0;fontSize=14;fontColor=#000000;exitX=1.004;exitY=0.529;exitDx=0;exitDy=0;exitPerimeter=0;entryX=0.25;entryY=0.5;entryDx=0;entryDy=0;entryPerimeter=0;" parent="1" source="hBpxUwQ70FFy837Izs81-446" target="hBpxUwQ70FFy837Izs81-478" edge="1">
          <mxGeometry width="50" height="50" relative="1" as="geometry">
            <mxPoint x="2264" y="650" as="sourcePoint" />
            <mxPoint x="2684" y="730" as="targetPoint" />
            <Array as="points">
              <mxPoint x="3010" y="650" />
            </Array>
          </mxGeometry>
        </mxCell>
        <mxCell id="hBpxUwQ70FFy837Izs81-478" value="" style="shape=xor;whiteSpace=wrap;html=1;fontSize=14;fontColor=#000000;fillColor=none;direction=south;" parent="1" vertex="1">
          <mxGeometry x="2970" y="1200" width="80" height="90" as="geometry" />
        </mxCell>
        <mxCell id="hBpxUwQ70FFy837Izs81-479" value="" style="endArrow=classic;html=1;rounded=0;fontSize=14;fontColor=#000000;entryX=0.175;entryY=0.25;entryDx=0;entryDy=0;entryPerimeter=0;" parent="1" target="hBpxUwQ70FFy837Izs81-478" edge="1">
          <mxGeometry width="50" height="50" relative="1" as="geometry">
            <mxPoint x="2990" y="492" as="sourcePoint" />
            <mxPoint x="2724" y="530" as="targetPoint" />
            <Array as="points">
              <mxPoint x="3030" y="492" />
            </Array>
          </mxGeometry>
        </mxCell>
        <mxCell id="hBpxUwQ70FFy837Izs81-480" value="" style="endArrow=classic;html=1;rounded=0;fontSize=14;fontColor=#000000;entryX=0;entryY=0.75;entryDx=0;entryDy=0;" parent="1" edge="1">
          <mxGeometry width="50" height="50" relative="1" as="geometry">
            <mxPoint x="1683" y="649.5" as="sourcePoint" />
            <mxPoint x="2003" y="649.5" as="targetPoint" />
          </mxGeometry>
        </mxCell>
        <mxCell id="hBpxUwQ70FFy837Izs81-483" value="rst" style="text;html=1;align=center;verticalAlign=middle;resizable=0;points=[];autosize=1;strokeColor=none;fillColor=none;fontSize=14;fontColor=#000000;" parent="1" vertex="1">
          <mxGeometry x="1679" y="630" width="30" height="20" as="geometry" />
        </mxCell>
        <mxCell id="hBpxUwQ70FFy837Izs81-484" value="clk" style="text;html=1;align=center;verticalAlign=middle;resizable=0;points=[];autosize=1;strokeColor=none;fillColor=none;fontSize=14;fontColor=#000000;" parent="1" vertex="1">
          <mxGeometry x="1679" y="600" width="30" height="20" as="geometry" />
        </mxCell>
        <mxCell id="hBpxUwQ70FFy837Izs81-485" value="" style="endArrow=classic;html=1;rounded=0;fontSize=14;fontColor=#000000;entryX=-0.001;entryY=0.851;entryDx=0;entryDy=0;entryPerimeter=0;" parent="1" target="hBpxUwQ70FFy837Izs81-406" edge="1">
          <mxGeometry width="50" height="50" relative="1" as="geometry">
            <mxPoint x="1844" y="620" as="sourcePoint" />
            <mxPoint x="2374" y="490" as="targetPoint" />
            <Array as="points">
              <mxPoint x="1844" y="750" />
              <mxPoint x="2274" y="750" />
              <mxPoint x="2274" y="570" />
            </Array>
          </mxGeometry>
        </mxCell>
        <mxCell id="hBpxUwQ70FFy837Izs81-486" value="" style="endArrow=classic;html=1;rounded=0;fontSize=14;fontColor=#000000;entryX=-0.007;entryY=0.911;entryDx=0;entryDy=0;entryPerimeter=0;" parent="1" target="hBpxUwQ70FFy837Izs81-406" edge="1">
          <mxGeometry width="50" height="50" relative="1" as="geometry">
            <mxPoint x="1824" y="651" as="sourcePoint" />
            <mxPoint x="2404" y="530" as="targetPoint" />
            <Array as="points">
              <mxPoint x="1824" y="770" />
              <mxPoint x="2284" y="770" />
              <mxPoint x="2284" y="590" />
            </Array>
          </mxGeometry>
        </mxCell>
        <mxCell id="hBpxUwQ70FFy837Izs81-487" value="" style="endArrow=classic;html=1;rounded=0;fontSize=14;fontColor=#000000;entryX=-0.026;entryY=0.578;entryDx=0;entryDy=0;entryPerimeter=0;strokeColor=#000000;exitX=-0.002;exitY=0.495;exitDx=0;exitDy=0;exitPerimeter=0;" parent="1" target="hBpxUwQ70FFy837Izs81-413" edge="1">
          <mxGeometry width="50" height="50" relative="1" as="geometry">
            <mxPoint x="1519.9400000000005" y="779.9000000000001" as="sourcePoint" />
            <mxPoint x="1784" y="780" as="targetPoint" />
            <Array as="points">
              <mxPoint x="1960" y="780" />
              <mxPoint x="2294" y="780" />
              <mxPoint x="2294" y="610" />
            </Array>
          </mxGeometry>
        </mxCell>
        <mxCell id="hBpxUwQ70FFy837Izs81-490" value="hit" style="text;html=1;align=center;verticalAlign=middle;resizable=0;points=[];autosize=1;strokeColor=none;fillColor=none;fontColor=#000000;" parent="1" vertex="1">
          <mxGeometry x="1990" y="1050" width="30" height="20" as="geometry" />
        </mxCell>
        <mxCell id="hBpxUwQ70FFy837Izs81-491" value="dirty" style="text;html=1;align=center;verticalAlign=middle;resizable=0;points=[];autosize=1;strokeColor=none;fillColor=none;fontColor=#000000;" parent="1" vertex="1">
          <mxGeometry x="1990" y="990" width="40" height="20" as="geometry" />
        </mxCell>
        <mxCell id="hBpxUwQ70FFy837Izs81-494" value="&lt;font style=&quot;font-size: 10px&quot;&gt;from index&lt;/font&gt;" style="text;html=1;align=center;verticalAlign=middle;resizable=0;points=[];autosize=1;strokeColor=none;fillColor=none;fontSize=14;fontColor=#000000;" parent="1" vertex="1">
          <mxGeometry x="1934" y="520" width="60" height="20" as="geometry" />
        </mxCell>
        <mxCell id="hBpxUwQ70FFy837Izs81-495" value="" style="endArrow=classic;html=1;rounded=0;fontSize=10;fontColor=#000000;exitX=1.016;exitY=0.669;exitDx=0;exitDy=0;exitPerimeter=0;strokeColor=#000000;strokeWidth=3;" parent="1" source="hBpxUwQ70FFy837Izs81-430" edge="1">
          <mxGeometry width="50" height="50" relative="1" as="geometry">
            <mxPoint x="2334" y="450" as="sourcePoint" />
            <mxPoint x="2560" y="160" as="targetPoint" />
            <Array as="points">
              <mxPoint x="2280" y="493" />
              <mxPoint x="2280" y="160" />
            </Array>
          </mxGeometry>
        </mxCell>
        <mxCell id="hBpxUwQ70FFy837Izs81-499" value="wr" style="text;html=1;align=center;verticalAlign=middle;resizable=0;points=[];autosize=1;strokeColor=none;fillColor=none;fontColor=#000000;" parent="1" vertex="1">
          <mxGeometry x="1990" y="930" width="30" height="20" as="geometry" />
        </mxCell>
        <mxCell id="hBpxUwQ70FFy837Izs81-500" value="rd" style="text;html=1;align=center;verticalAlign=middle;resizable=0;points=[];autosize=1;strokeColor=none;fillColor=none;fontColor=#000000;" parent="1" vertex="1">
          <mxGeometry x="1990" y="900" width="30" height="20" as="geometry" />
        </mxCell>
        <mxCell id="hBpxUwQ70FFy837Izs81-506" value="" style="endArrow=classic;html=1;rounded=0;fontSize=10;fontColor=#000000;entryX=-0.007;entryY=0.885;entryDx=0;entryDy=0;entryPerimeter=0;strokeColor=#000000;" parent="1" target="hBpxUwQ70FFy837Izs81-419" edge="1">
          <mxGeometry width="50" height="50" relative="1" as="geometry">
            <mxPoint x="1964" y="780" as="sourcePoint" />
            <mxPoint x="1974" y="690" as="targetPoint" />
            <Array as="points">
              <mxPoint x="1964" y="680" />
            </Array>
          </mxGeometry>
        </mxCell>
        <mxCell id="hBpxUwQ70FFy837Izs81-508" value="valid" style="text;html=1;align=center;verticalAlign=middle;resizable=0;points=[];autosize=1;strokeColor=none;fillColor=none;fontColor=#000000;" parent="1" vertex="1">
          <mxGeometry x="1990" y="960" width="40" height="20" as="geometry" />
        </mxCell>
        <mxCell id="hBpxUwQ70FFy837Izs81-510" value="stall" style="text;html=1;align=center;verticalAlign=middle;resizable=0;points=[];autosize=1;strokeColor=none;fillColor=none;fontColor=#000000;" parent="1" vertex="1">
          <mxGeometry x="1990" y="1020" width="40" height="20" as="geometry" />
        </mxCell>
        <mxCell id="hBpxUwQ70FFy837Izs81-517" value="enable" style="text;html=1;align=center;verticalAlign=middle;resizable=0;points=[];autosize=1;strokeColor=none;fillColor=none;fontColor=#000000;" parent="1" vertex="1">
          <mxGeometry x="2248" y="1188" width="50" height="20" as="geometry" />
        </mxCell>
        <mxCell id="hBpxUwQ70FFy837Izs81-519" value="" style="shape=table;html=1;whiteSpace=wrap;startSize=0;container=1;collapsible=0;childLayout=tableLayout;" parent="1" vertex="1">
          <mxGeometry x="1130" y="300" width="380" height="40" as="geometry" />
        </mxCell>
        <mxCell id="hBpxUwQ70FFy837Izs81-520" value="" style="shape=tableRow;horizontal=0;startSize=0;swimlaneHead=0;swimlaneBody=0;top=0;left=0;bottom=0;right=0;collapsible=0;dropTarget=0;fillColor=none;points=[[0,0.5],[1,0.5]];portConstraint=eastwest;" parent="hBpxUwQ70FFy837Izs81-519" vertex="1">
          <mxGeometry width="380" height="40" as="geometry" />
        </mxCell>
        <mxCell id="hBpxUwQ70FFy837Izs81-521" value="&lt;span&gt;Tag&lt;br&gt;[15:11]&lt;br&gt;&lt;/span&gt;" style="shape=partialRectangle;html=1;whiteSpace=wrap;connectable=0;fillColor=none;top=0;left=0;bottom=0;right=0;overflow=hidden;" parent="hBpxUwQ70FFy837Izs81-520" vertex="1">
          <mxGeometry width="119" height="40" as="geometry">
            <mxRectangle width="119" height="40" as="alternateBounds" />
          </mxGeometry>
        </mxCell>
        <mxCell id="hBpxUwQ70FFy837Izs81-522" value="&lt;span&gt;Index&lt;br&gt;[10:3]&lt;br&gt;&lt;/span&gt;" style="shape=partialRectangle;html=1;whiteSpace=wrap;connectable=0;fillColor=none;top=0;left=0;bottom=0;right=0;overflow=hidden;" parent="hBpxUwQ70FFy837Izs81-520" vertex="1">
          <mxGeometry x="119" width="117" height="40" as="geometry">
            <mxRectangle width="117" height="40" as="alternateBounds" />
          </mxGeometry>
        </mxCell>
        <mxCell id="hBpxUwQ70FFy837Izs81-523" value="&lt;span&gt;Word Offset&lt;br&gt;[2:1]&lt;br&gt;&lt;/span&gt;" style="shape=partialRectangle;html=1;whiteSpace=wrap;connectable=0;fillColor=none;top=0;left=0;bottom=0;right=0;overflow=hidden;" parent="hBpxUwQ70FFy837Izs81-520" vertex="1">
          <mxGeometry x="236" width="81" height="40" as="geometry">
            <mxRectangle width="81" height="40" as="alternateBounds" />
          </mxGeometry>
        </mxCell>
        <mxCell id="hBpxUwQ70FFy837Izs81-525" value="Byte Offset&lt;br&gt;[0]" style="shape=partialRectangle;html=1;whiteSpace=wrap;connectable=0;fillColor=none;top=0;left=0;bottom=0;right=0;overflow=hidden;" parent="hBpxUwQ70FFy837Izs81-520" vertex="1">
          <mxGeometry x="317" width="63" height="40" as="geometry">
            <mxRectangle width="63" height="40" as="alternateBounds" />
          </mxGeometry>
        </mxCell>
        <mxCell id="hBpxUwQ70FFy837Izs81-526" value="" style="endArrow=classic;html=1;rounded=0;fontSize=10;fontColor=#000000;strokeColor=#000000;strokeWidth=3;entryX=0.348;entryY=1;entryDx=0;entryDy=0;entryPerimeter=0;" parent="1" target="BHHmnbVCYn1iok0aPhN5-66" edge="1">
          <mxGeometry width="50" height="50" relative="1" as="geometry">
            <mxPoint x="1320" y="280" as="sourcePoint" />
            <mxPoint x="2430" y="332" as="targetPoint" />
            <Array as="points">
              <mxPoint x="1320" y="240" />
              <mxPoint x="2320" y="240" />
              <mxPoint x="2320" y="360" />
            </Array>
          </mxGeometry>
        </mxCell>
        <mxCell id="hBpxUwQ70FFy837Izs81-527" value="" style="endArrow=none;html=1;rounded=0;fontSize=10;fontColor=#000000;strokeColor=#000000;exitX=0.711;exitY=0.993;exitDx=0;exitDy=0;exitPerimeter=0;strokeWidth=2;" parent="1" source="hBpxUwQ70FFy837Izs81-520" edge="1">
          <mxGeometry width="50" height="50" relative="1" as="geometry">
            <mxPoint x="1390" y="400" as="sourcePoint" />
            <mxPoint x="1440" y="360" as="targetPoint" />
            <Array as="points">
              <mxPoint x="1400" y="360" />
            </Array>
          </mxGeometry>
        </mxCell>
        <mxCell id="hBpxUwQ70FFy837Izs81-528" value="" style="endArrow=none;html=1;rounded=0;fontSize=10;fontColor=#000000;strokeColor=#000000;" parent="1" edge="1">
          <mxGeometry width="50" height="50" relative="1" as="geometry">
            <mxPoint x="1440" y="360" as="sourcePoint" />
            <mxPoint x="1480" y="340" as="targetPoint" />
            <Array as="points">
              <mxPoint x="1480" y="360" />
            </Array>
          </mxGeometry>
        </mxCell>
        <mxCell id="hBpxUwQ70FFy837Izs81-530" value="" style="endArrow=none;html=1;rounded=0;fontSize=10;fontColor=#000000;strokeColor=#000000;" parent="1" edge="1">
          <mxGeometry width="50" height="50" relative="1" as="geometry">
            <mxPoint x="1439.32" y="360" as="sourcePoint" />
            <mxPoint x="1479.32" y="340" as="targetPoint" />
            <Array as="points">
              <mxPoint x="1479.32" y="360" />
            </Array>
          </mxGeometry>
        </mxCell>
        <mxCell id="hBpxUwQ70FFy837Izs81-531" value="" style="endArrow=none;html=1;rounded=0;fontSize=10;fontColor=#000000;strokeColor=#000000;" parent="1" edge="1">
          <mxGeometry width="50" height="50" relative="1" as="geometry">
            <mxPoint x="1439.3199999999997" y="360" as="sourcePoint" />
            <mxPoint x="1479.3199999999997" y="340" as="targetPoint" />
            <Array as="points">
              <mxPoint x="1479.32" y="360" />
              <mxPoint x="1479" y="350" />
            </Array>
          </mxGeometry>
        </mxCell>
        <mxCell id="hBpxUwQ70FFy837Izs81-532" value="" style="endArrow=classic;html=1;rounded=0;fontSize=10;fontColor=#000000;strokeColor=#000000;entryX=0.024;entryY=0.433;entryDx=0;entryDy=0;entryPerimeter=0;exitX=0.156;exitY=1.019;exitDx=0;exitDy=0;exitPerimeter=0;strokeWidth=3;" parent="1" edge="1">
          <mxGeometry width="50" height="50" relative="1" as="geometry">
            <mxPoint x="1189.2799999999997" y="340" as="sourcePoint" />
            <mxPoint x="2004" y="368.81999999999994" as="targetPoint" />
            <Array as="points">
              <mxPoint x="1189" y="369.24" />
            </Array>
          </mxGeometry>
        </mxCell>
        <mxCell id="hBpxUwQ70FFy837Izs81-533" value="" style="endArrow=classic;html=1;rounded=0;fontSize=10;fontColor=#000000;strokeColor=#000000;entryX=0.024;entryY=0.433;entryDx=0;entryDy=0;entryPerimeter=0;exitX=0.47;exitY=1.036;exitDx=0;exitDy=0;exitPerimeter=0;strokeWidth=3;" parent="1" edge="1">
          <mxGeometry width="50" height="50" relative="1" as="geometry">
            <mxPoint x="1308.6" y="340.6800000000003" as="sourcePoint" />
            <mxPoint x="2004" y="388.4100000000001" as="targetPoint" />
            <Array as="points">
              <mxPoint x="1309" y="389.24" />
            </Array>
          </mxGeometry>
        </mxCell>
        <mxCell id="hBpxUwQ70FFy837Izs81-534" value="" style="endArrow=classic;html=1;rounded=0;fontSize=10;fontColor=#000000;strokeColor=#000000;strokeWidth=3;" parent="1" edge="1">
          <mxGeometry width="50" height="50" relative="1" as="geometry">
            <mxPoint x="1439.3199999999997" y="359.2399999999998" as="sourcePoint" />
            <mxPoint x="1560" y="410" as="targetPoint" />
            <Array as="points">
              <mxPoint x="1439.32" y="409.24" />
            </Array>
          </mxGeometry>
        </mxCell>
        <mxCell id="hBpxUwQ70FFy837Izs81-535" value="" style="endArrow=classic;html=1;rounded=0;fontSize=10;fontColor=#000000;strokeColor=#000000;strokeWidth=3;entryX=-0.032;entryY=0.494;entryDx=0;entryDy=0;entryPerimeter=0;" parent="1" target="hBpxUwQ70FFy837Izs81-408" edge="1">
          <mxGeometry width="50" height="50" relative="1" as="geometry">
            <mxPoint x="2560" y="160" as="sourcePoint" />
            <mxPoint x="2640" y="220" as="targetPoint" />
            <Array as="points">
              <mxPoint x="2630" y="160" />
              <mxPoint x="2630" y="360" />
            </Array>
          </mxGeometry>
        </mxCell>
        <mxCell id="hBpxUwQ70FFy837Izs81-537" value="data_out[15:0]" style="text;html=1;align=center;verticalAlign=middle;resizable=0;points=[];autosize=1;strokeColor=none;fillColor=none;fontColor=#000000;" parent="1" vertex="1">
          <mxGeometry x="2650" y="120" width="90" height="20" as="geometry" />
        </mxCell>
        <mxCell id="hBpxUwQ70FFy837Izs81-538" value="" style="endArrow=classic;html=1;rounded=0;fontSize=10;fontColor=#000000;strokeColor=#000000;strokeWidth=3;entryX=0;entryY=0.503;entryDx=0;entryDy=0;entryPerimeter=0;exitX=0.5;exitY=0;exitDx=0;exitDy=0;" parent="1" source="hBpxUwQ70FFy837Izs81-544" target="hBpxUwQ70FFy837Izs81-436" edge="1">
          <mxGeometry width="50" height="50" relative="1" as="geometry">
            <mxPoint x="1240.0000000000002" y="560" as="sourcePoint" />
            <mxPoint x="1830" y="140" as="targetPoint" />
            <Array as="points">
              <mxPoint x="1200" y="435" />
              <mxPoint x="1200" y="440" />
              <mxPoint x="1200" y="510" />
              <mxPoint x="1440" y="510" />
            </Array>
          </mxGeometry>
        </mxCell>
        <mxCell id="hBpxUwQ70FFy837Izs81-539" value="clk" style="text;html=1;align=center;verticalAlign=middle;resizable=0;points=[];autosize=1;strokeColor=none;fillColor=none;fontColor=#000000;" parent="1" vertex="1">
          <mxGeometry x="1990" y="840" width="30" height="20" as="geometry" />
        </mxCell>
        <mxCell id="hBpxUwQ70FFy837Izs81-540" value="rst" style="text;html=1;align=center;verticalAlign=middle;resizable=0;points=[];autosize=1;strokeColor=none;fillColor=none;fontColor=#000000;" parent="1" vertex="1">
          <mxGeometry x="1990" y="870" width="30" height="20" as="geometry" />
        </mxCell>
        <mxCell id="hBpxUwQ70FFy837Izs81-544" value="MUX" style="shape=trapezoid;perimeter=trapezoidPerimeter;whiteSpace=wrap;html=1;fixedSize=1;fontSize=10;fontColor=#000000;fillColor=none;direction=south;" parent="1" vertex="1">
          <mxGeometry x="1040" y="400" width="40" height="70" as="geometry" />
        </mxCell>
        <mxCell id="hBpxUwQ70FFy837Izs81-545" value="" style="endArrow=classic;html=1;rounded=0;fontSize=10;fontColor=#000000;strokeColor=#000000;strokeWidth=3;entryX=0.75;entryY=1;entryDx=0;entryDy=0;exitX=1.003;exitY=0.343;exitDx=0;exitDy=0;exitPerimeter=0;" parent="1" target="hBpxUwQ70FFy837Izs81-544" edge="1" source="hBpxUwQ70FFy837Izs81-406">
          <mxGeometry width="50" height="50" relative="1" as="geometry">
            <mxPoint x="3055" y="273" as="sourcePoint" />
            <mxPoint x="885" y="430" as="targetPoint" />
            <Array as="points">
              <mxPoint x="3185" y="403" />
              <mxPoint x="3185" y="150" />
              <mxPoint x="3185" y="80" />
              <mxPoint x="825" y="70" />
              <mxPoint x="825" y="110" />
              <mxPoint x="825" y="450" />
            </Array>
          </mxGeometry>
        </mxCell>
        <mxCell id="hBpxUwQ70FFy837Izs81-547" value="valid_in" style="text;html=1;align=center;verticalAlign=middle;resizable=0;points=[];autosize=1;strokeColor=none;fillColor=none;fontColor=#000000;" parent="1" vertex="1">
          <mxGeometry x="2240" y="1148" width="60" height="20" as="geometry" />
        </mxCell>
        <mxCell id="p3O0Pv4yz-D4xkIcRcyF-36" value="When write == 0, the data selected by &quot;index&quot; and &quot;offset&quot; appears on this output" style="text;html=1;align=center;verticalAlign=middle;resizable=0;points=[];autosize=1;strokeColor=none;fillColor=none;" parent="1" vertex="1">
          <mxGeometry x="2650" y="150" width="440" height="20" as="geometry" />
        </mxCell>
        <mxCell id="p3O0Pv4yz-D4xkIcRcyF-39" value="16" style="text;html=1;strokeColor=none;fillColor=none;align=center;verticalAlign=middle;whiteSpace=wrap;rounded=0;" parent="1" vertex="1">
          <mxGeometry x="1280" y="487" width="20" height="10" as="geometry" />
        </mxCell>
        <mxCell id="p3O0Pv4yz-D4xkIcRcyF-40" value="" style="endArrow=none;html=1;rounded=0;" parent="1" edge="1">
          <mxGeometry width="50" height="50" relative="1" as="geometry">
            <mxPoint x="1280" y="522" as="sourcePoint" />
            <mxPoint x="1300" y="502" as="targetPoint" />
            <Array as="points">
              <mxPoint x="1300" y="502" />
            </Array>
          </mxGeometry>
        </mxCell>
        <mxCell id="p3O0Pv4yz-D4xkIcRcyF-55" value="16" style="text;html=1;strokeColor=none;fillColor=none;align=center;verticalAlign=middle;whiteSpace=wrap;rounded=0;" parent="1" vertex="1">
          <mxGeometry x="2570" y="140" width="20" height="10" as="geometry" />
        </mxCell>
        <mxCell id="p3O0Pv4yz-D4xkIcRcyF-56" value="" style="endArrow=none;html=1;rounded=0;" parent="1" edge="1">
          <mxGeometry width="50" height="50" relative="1" as="geometry">
            <mxPoint x="2570" y="170" as="sourcePoint" />
            <mxPoint x="2590" y="150" as="targetPoint" />
            <Array as="points">
              <mxPoint x="2590" y="150" />
            </Array>
          </mxGeometry>
        </mxCell>
        <mxCell id="p3O0Pv4yz-D4xkIcRcyF-73" value="writeback_data&lt;span&gt;&lt;br&gt;&lt;/span&gt;" style="text;html=1;align=center;verticalAlign=middle;resizable=0;points=[];autosize=1;strokeColor=none;fillColor=none;" parent="1" vertex="1">
          <mxGeometry x="2645" y="200" width="100" height="20" as="geometry" />
        </mxCell>
        <mxCell id="p3O0Pv4yz-D4xkIcRcyF-76" value="Write data from cache to memory" style="text;html=1;align=center;verticalAlign=middle;resizable=0;points=[];autosize=1;strokeColor=none;fillColor=none;" parent="1" vertex="1">
          <mxGeometry x="2650" y="220" width="190" height="20" as="geometry" />
        </mxCell>
        <mxCell id="p3O0Pv4yz-D4xkIcRcyF-79" value="" style="endArrow=none;html=1;rounded=0;" parent="1" edge="1">
          <mxGeometry width="50" height="50" relative="1" as="geometry">
            <mxPoint x="941.5" y="462" as="sourcePoint" />
            <mxPoint x="961.5" y="442" as="targetPoint" />
            <Array as="points">
              <mxPoint x="961.5" y="442" />
            </Array>
          </mxGeometry>
        </mxCell>
        <mxCell id="p3O0Pv4yz-D4xkIcRcyF-80" value="16" style="text;html=1;strokeColor=none;fillColor=none;align=center;verticalAlign=middle;whiteSpace=wrap;rounded=0;" parent="1" vertex="1">
          <mxGeometry x="940" y="422" width="23" height="20" as="geometry" />
        </mxCell>
        <mxCell id="p3O0Pv4yz-D4xkIcRcyF-108" value="input request data&lt;br&gt;from CPU" style="rounded=0;whiteSpace=wrap;html=1;" parent="1" vertex="1">
          <mxGeometry x="440" y="115.39" width="120" height="54.61" as="geometry" />
        </mxCell>
        <mxCell id="p3O0Pv4yz-D4xkIcRcyF-109" value="" style="endArrow=classic;html=1;rounded=0;strokeWidth=2;exitX=1;exitY=0.5;exitDx=0;exitDy=0;entryX=0.25;entryY=1;entryDx=0;entryDy=0;" parent="1" source="p3O0Pv4yz-D4xkIcRcyF-108" target="hBpxUwQ70FFy837Izs81-544" edge="1">
          <mxGeometry width="50" height="50" relative="1" as="geometry">
            <mxPoint x="620" y="150" as="sourcePoint" />
            <mxPoint x="680" y="140" as="targetPoint" />
            <Array as="points">
              <mxPoint x="1000" y="140" />
              <mxPoint x="1000" y="418" />
            </Array>
          </mxGeometry>
        </mxCell>
        <mxCell id="p3O0Pv4yz-D4xkIcRcyF-133" value="" style="endArrow=classic;html=1;rounded=0;strokeWidth=2;exitX=1;exitY=0.5;exitDx=0;exitDy=0;entryX=0.25;entryY=1;entryDx=0;entryDy=0;strokeColor=#000000;" parent="1" edge="1">
          <mxGeometry width="50" height="50" relative="1" as="geometry">
            <mxPoint x="559.9999999999995" y="142.6949999999997" as="sourcePoint" />
            <mxPoint x="1039.9999999999995" y="417.49999999999955" as="targetPoint" />
            <Array as="points">
              <mxPoint x="1000" y="140" />
              <mxPoint x="1000" y="418" />
            </Array>
          </mxGeometry>
        </mxCell>
        <mxCell id="BHHmnbVCYn1iok0aPhN5-25" value="mem_offset[2:0]" style="text;html=1;align=center;verticalAlign=middle;resizable=0;points=[];autosize=1;strokeColor=none;fillColor=none;" vertex="1" parent="1">
          <mxGeometry x="2200" y="990" width="100" height="20" as="geometry" />
        </mxCell>
        <mxCell id="BHHmnbVCYn1iok0aPhN5-26" value="cache_wr_offset[2:0]" style="text;html=1;align=center;verticalAlign=middle;resizable=0;points=[];autosize=1;strokeColor=none;fillColor=none;" vertex="1" parent="1">
          <mxGeometry x="2170" y="900" width="130" height="20" as="geometry" />
        </mxCell>
        <mxCell id="BHHmnbVCYn1iok0aPhN5-27" value="cache_rd_offset[2:0]" style="text;html=1;align=center;verticalAlign=middle;resizable=0;points=[];autosize=1;strokeColor=none;fillColor=none;" vertex="1" parent="1">
          <mxGeometry x="2175" y="930" width="120" height="20" as="geometry" />
        </mxCell>
        <mxCell id="BHHmnbVCYn1iok0aPhN5-28" value="mem_wr" style="text;html=1;align=center;verticalAlign=middle;resizable=0;points=[];autosize=1;strokeColor=none;fillColor=none;" vertex="1" parent="1">
          <mxGeometry x="2240" y="1020" width="60" height="20" as="geometry" />
        </mxCell>
        <mxCell id="BHHmnbVCYn1iok0aPhN5-29" value="mem_rd" style="text;html=1;align=center;verticalAlign=middle;resizable=0;points=[];autosize=1;strokeColor=none;fillColor=none;" vertex="1" parent="1">
          <mxGeometry x="2238" y="1050" width="60" height="20" as="geometry" />
        </mxCell>
        <mxCell id="BHHmnbVCYn1iok0aPhN5-31" value="cache_select" style="text;html=1;align=center;verticalAlign=middle;resizable=0;points=[];autosize=1;strokeColor=none;fillColor=none;" vertex="1" parent="1">
          <mxGeometry x="2210" y="960" width="90" height="20" as="geometry" />
        </mxCell>
        <mxCell id="BHHmnbVCYn1iok0aPhN5-32" value="done" style="text;html=1;align=center;verticalAlign=middle;resizable=0;points=[];autosize=1;strokeColor=none;fillColor=none;" vertex="1" parent="1">
          <mxGeometry x="2255" y="1130" width="40" height="20" as="geometry" />
        </mxCell>
        <mxCell id="BHHmnbVCYn1iok0aPhN5-33" value="cache_hit" style="text;html=1;align=center;verticalAlign=middle;resizable=0;points=[];autosize=1;strokeColor=none;fillColor=none;" vertex="1" parent="1">
          <mxGeometry x="2225" y="1080" width="70" height="20" as="geometry" />
        </mxCell>
        <mxCell id="BHHmnbVCYn1iok0aPhN5-34" value="stall_out" style="text;html=1;align=center;verticalAlign=middle;resizable=0;points=[];autosize=1;strokeColor=none;fillColor=none;" vertex="1" parent="1">
          <mxGeometry x="2238" y="1110" width="60" height="20" as="geometry" />
        </mxCell>
        <mxCell id="BHHmnbVCYn1iok0aPhN5-36" value="" style="endArrow=classic;html=1;rounded=0;exitX=0.986;exitY=0.564;exitDx=0;exitDy=0;exitPerimeter=0;entryX=0.019;entryY=0.35;entryDx=0;entryDy=0;entryPerimeter=0;" edge="1" parent="1" source="BHHmnbVCYn1iok0aPhN5-28" target="hBpxUwQ70FFy837Izs81-409">
          <mxGeometry width="50" height="50" relative="1" as="geometry">
            <mxPoint x="2390" y="860" as="sourcePoint" />
            <mxPoint x="2550" y="430" as="targetPoint" />
            <Array as="points">
              <mxPoint x="2680" y="1031" />
              <mxPoint x="2680" y="387" />
            </Array>
          </mxGeometry>
        </mxCell>
        <mxCell id="BHHmnbVCYn1iok0aPhN5-37" value="" style="endArrow=classic;html=1;rounded=0;exitX=0.999;exitY=0.609;exitDx=0;exitDy=0;exitPerimeter=0;entryX=0;entryY=0.5;entryDx=0;entryDy=0;entryPerimeter=0;" edge="1" parent="1" source="hBpxUwQ70FFy837Izs81-447" target="hBpxUwQ70FFy837Izs81-410">
          <mxGeometry width="50" height="50" relative="1" as="geometry">
            <mxPoint x="2420" y="1120" as="sourcePoint" />
            <mxPoint x="2470" y="1070" as="targetPoint" />
            <Array as="points">
              <mxPoint x="2560" y="1061" />
              <mxPoint x="2700" y="1060" />
              <mxPoint x="2700" y="420" />
            </Array>
          </mxGeometry>
        </mxCell>
        <mxCell id="BHHmnbVCYn1iok0aPhN5-38" value="" style="endArrow=classic;html=1;rounded=0;exitX=1.044;exitY=0.258;exitDx=0;exitDy=0;exitPerimeter=0;entryX=-0.11;entryY=0.642;entryDx=0;entryDy=0;entryPerimeter=0;" edge="1" parent="1" source="hBpxUwQ70FFy837Izs81-416" target="hBpxUwQ70FFy837Izs81-510">
          <mxGeometry width="50" height="50" relative="1" as="geometry">
            <mxPoint x="3080" y="470" as="sourcePoint" />
            <mxPoint x="3000" y="930" as="targetPoint" />
            <Array as="points">
              <mxPoint x="3120" y="425" />
              <mxPoint x="3120" y="1200" />
              <mxPoint x="3120" y="1310" />
              <mxPoint x="1870" y="1320" />
              <mxPoint x="1870" y="1033" />
            </Array>
          </mxGeometry>
        </mxCell>
        <mxCell id="BHHmnbVCYn1iok0aPhN5-39" value="" style="endArrow=classic;html=1;rounded=0;exitX=0.973;exitY=0.527;exitDx=0;exitDy=0;exitPerimeter=0;entryX=0.006;entryY=0.642;entryDx=0;entryDy=0;entryPerimeter=0;" edge="1" parent="1" source="hBpxUwQ70FFy837Izs81-445" target="hBpxUwQ70FFy837Izs81-508">
          <mxGeometry width="50" height="50" relative="1" as="geometry">
            <mxPoint x="2329" y="580" as="sourcePoint" />
            <mxPoint x="2379" y="530" as="targetPoint" />
            <Array as="points">
              <mxPoint x="2360" y="521" />
              <mxPoint x="2360" y="800" />
              <mxPoint x="1880" y="800" />
              <mxPoint x="1880" y="810" />
              <mxPoint x="1880" y="973" />
            </Array>
          </mxGeometry>
        </mxCell>
        <mxCell id="BHHmnbVCYn1iok0aPhN5-40" value="" style="endArrow=classic;html=1;rounded=0;exitX=1;exitY=0.25;exitDx=0;exitDy=0;entryX=-0.044;entryY=0.45;entryDx=0;entryDy=0;entryPerimeter=0;" edge="1" parent="1" source="hBpxUwQ70FFy837Izs81-419" target="hBpxUwQ70FFy837Izs81-490">
          <mxGeometry width="50" height="50" relative="1" as="geometry">
            <mxPoint x="2310" y="415" as="sourcePoint" />
            <mxPoint x="2360" y="365" as="targetPoint" />
            <Array as="points">
              <mxPoint x="2380" y="400" />
              <mxPoint x="2380" y="810" />
              <mxPoint x="2380" y="820" />
              <mxPoint x="1900" y="820" />
              <mxPoint x="1900" y="1059" />
            </Array>
          </mxGeometry>
        </mxCell>
        <mxCell id="BHHmnbVCYn1iok0aPhN5-41" value="" style="endArrow=classic;html=1;rounded=0;exitX=1.067;exitY=0.55;exitDx=0;exitDy=0;exitPerimeter=0;entryX=-0.125;entryY=0.717;entryDx=0;entryDy=0;entryPerimeter=0;" edge="1" parent="1" source="hBpxUwQ70FFy837Izs81-428" target="hBpxUwQ70FFy837Izs81-491">
          <mxGeometry width="50" height="50" relative="1" as="geometry">
            <mxPoint x="2300" y="480" as="sourcePoint" />
            <mxPoint x="2350" y="430" as="targetPoint" />
            <Array as="points">
              <mxPoint x="2370" y="431" />
              <mxPoint x="2370" y="810" />
              <mxPoint x="1920" y="810" />
              <mxPoint x="1920" y="1004" />
            </Array>
          </mxGeometry>
        </mxCell>
        <mxCell id="BHHmnbVCYn1iok0aPhN5-44" value="" style="endArrow=classic;html=1;rounded=0;entryX=0.021;entryY=0.637;entryDx=0;entryDy=0;entryPerimeter=0;" edge="1" parent="1" target="hBpxUwQ70FFy837Izs81-539">
          <mxGeometry width="50" height="50" relative="1" as="geometry">
            <mxPoint x="1760" y="620" as="sourcePoint" />
            <mxPoint x="1750" y="840" as="targetPoint" />
            <Array as="points">
              <mxPoint x="1760" y="850" />
            </Array>
          </mxGeometry>
        </mxCell>
        <mxCell id="BHHmnbVCYn1iok0aPhN5-45" value="" style="endArrow=classic;html=1;rounded=0;entryX=-0.014;entryY=0.558;entryDx=0;entryDy=0;entryPerimeter=0;" edge="1" parent="1" target="hBpxUwQ70FFy837Izs81-540">
          <mxGeometry width="50" height="50" relative="1" as="geometry">
            <mxPoint x="1720" y="650" as="sourcePoint" />
            <mxPoint x="1630" y="840" as="targetPoint" />
            <Array as="points">
              <mxPoint x="1720" y="881" />
            </Array>
          </mxGeometry>
        </mxCell>
        <mxCell id="BHHmnbVCYn1iok0aPhN5-46" value="" style="endArrow=classic;html=1;rounded=0;entryX=-0.121;entryY=0.582;entryDx=0;entryDy=0;entryPerimeter=0;" edge="1" parent="1" target="hBpxUwQ70FFy837Izs81-500">
          <mxGeometry width="50" height="50" relative="1" as="geometry">
            <mxPoint x="1490" y="912" as="sourcePoint" />
            <mxPoint x="1480" y="970" as="targetPoint" />
          </mxGeometry>
        </mxCell>
        <mxCell id="BHHmnbVCYn1iok0aPhN5-47" value="" style="endArrow=classic;html=1;rounded=0;entryX=0;entryY=0.5;entryDx=0;entryDy=0;entryPerimeter=0;" edge="1" parent="1" target="hBpxUwQ70FFy837Izs81-499">
          <mxGeometry width="50" height="50" relative="1" as="geometry">
            <mxPoint x="1500" y="940" as="sourcePoint" />
            <mxPoint x="1400" y="980" as="targetPoint" />
          </mxGeometry>
        </mxCell>
        <mxCell id="BHHmnbVCYn1iok0aPhN5-48" value="" style="endArrow=classic;html=1;rounded=0;exitX=1;exitY=0.75;exitDx=0;exitDy=0;" edge="1" parent="1" source="hBpxUwQ70FFy837Izs81-447">
          <mxGeometry width="50" height="50" relative="1" as="geometry">
            <mxPoint x="2510" y="1190" as="sourcePoint" />
            <mxPoint x="2560" y="1115" as="targetPoint" />
          </mxGeometry>
        </mxCell>
        <mxCell id="BHHmnbVCYn1iok0aPhN5-49" value="" style="endArrow=classic;html=1;rounded=0;exitX=1.001;exitY=0.816;exitDx=0;exitDy=0;exitPerimeter=0;" edge="1" parent="1" source="hBpxUwQ70FFy837Izs81-447">
          <mxGeometry width="50" height="50" relative="1" as="geometry">
            <mxPoint x="2298" y="1149.41" as="sourcePoint" />
            <mxPoint x="2558" y="1140" as="targetPoint" />
          </mxGeometry>
        </mxCell>
        <mxCell id="BHHmnbVCYn1iok0aPhN5-51" value="" style="endArrow=classic;html=1;rounded=0;exitX=1.004;exitY=0.918;exitDx=0;exitDy=0;exitPerimeter=0;entryX=0.175;entryY=0.75;entryDx=0;entryDy=0;entryPerimeter=0;" edge="1" parent="1" source="hBpxUwQ70FFy837Izs81-447" target="hBpxUwQ70FFy837Izs81-478">
          <mxGeometry width="50" height="50" relative="1" as="geometry">
            <mxPoint x="2300" y="1189.76" as="sourcePoint" />
            <mxPoint x="2960" y="900" as="targetPoint" />
            <Array as="points">
              <mxPoint x="2990" y="1179" />
            </Array>
          </mxGeometry>
        </mxCell>
        <mxCell id="BHHmnbVCYn1iok0aPhN5-52" value="" style="endArrow=classic;html=1;rounded=0;exitX=1;exitY=0.75;exitDx=0;exitDy=0;" edge="1" parent="1">
          <mxGeometry width="50" height="50" relative="1" as="geometry">
            <mxPoint x="2298" y="1089.76" as="sourcePoint" />
            <mxPoint x="2558" y="1089.76" as="targetPoint" />
          </mxGeometry>
        </mxCell>
        <mxCell id="BHHmnbVCYn1iok0aPhN5-53" value="" style="endArrow=classic;html=1;rounded=0;exitX=0.988;exitY=0.673;exitDx=0;exitDy=0;exitPerimeter=0;entryX=-0.021;entryY=0.627;entryDx=0;entryDy=0;entryPerimeter=0;" edge="1" parent="1" source="hBpxUwQ70FFy837Izs81-547" target="hBpxUwQ70FFy837Izs81-435">
          <mxGeometry width="50" height="50" relative="1" as="geometry">
            <mxPoint x="2620" y="1030" as="sourcePoint" />
            <mxPoint x="2670" y="980" as="targetPoint" />
            <Array as="points">
              <mxPoint x="2600" y="1160" />
              <mxPoint x="2600" y="1400" />
              <mxPoint x="1780" y="1400" />
              <mxPoint x="1780" y="543" />
            </Array>
          </mxGeometry>
        </mxCell>
        <mxCell id="BHHmnbVCYn1iok0aPhN5-54" value="" style="endArrow=classic;html=1;rounded=0;exitX=0.999;exitY=0.137;exitDx=0;exitDy=0;exitPerimeter=0;entryX=-0.012;entryY=0.419;entryDx=0;entryDy=0;entryPerimeter=0;" edge="1" parent="1" source="hBpxUwQ70FFy837Izs81-447" target="hBpxUwQ70FFy837Izs81-419">
          <mxGeometry width="50" height="50" relative="1" as="geometry">
            <mxPoint x="2670" y="880" as="sourcePoint" />
            <mxPoint x="2800" y="970" as="targetPoint" />
            <Array as="points">
              <mxPoint x="2480" y="882" />
              <mxPoint x="2480" y="1360" />
              <mxPoint x="1680" y="1360" />
              <mxPoint x="1680" y="474" />
            </Array>
          </mxGeometry>
        </mxCell>
        <mxCell id="BHHmnbVCYn1iok0aPhN5-55" value="" style="endArrow=classic;html=1;rounded=0;exitX=1.017;exitY=0.5;exitDx=0;exitDy=0;exitPerimeter=0;entryX=0;entryY=0.5;entryDx=0;entryDy=0;strokeWidth=2;" edge="1" parent="1" source="BHHmnbVCYn1iok0aPhN5-31" target="hBpxUwQ70FFy837Izs81-544">
          <mxGeometry width="50" height="50" relative="1" as="geometry">
            <mxPoint x="2400" y="1000" as="sourcePoint" />
            <mxPoint x="1120" y="380" as="targetPoint" />
            <Array as="points">
              <mxPoint x="2410" y="970" />
              <mxPoint x="2410" y="1280" />
              <mxPoint x="1120" y="1280" />
              <mxPoint x="1120" y="380" />
              <mxPoint x="1060" y="380" />
            </Array>
          </mxGeometry>
        </mxCell>
        <mxCell id="BHHmnbVCYn1iok0aPhN5-56" value="" style="endArrow=classic;html=1;rounded=0;exitX=1.064;exitY=0.561;exitDx=0;exitDy=0;exitPerimeter=0;entryX=-0.044;entryY=0.572;entryDx=0;entryDy=0;entryPerimeter=0;" edge="1" parent="1" source="hBpxUwQ70FFy837Izs81-458" target="hBpxUwQ70FFy837Izs81-431">
          <mxGeometry width="50" height="50" relative="1" as="geometry">
            <mxPoint x="2360" y="870" as="sourcePoint" />
            <mxPoint x="2410" y="820" as="targetPoint" />
            <Array as="points">
              <mxPoint x="2340" y="851" />
              <mxPoint x="2340" y="740" />
              <mxPoint x="1930" y="740" />
              <mxPoint x="1930" y="451" />
            </Array>
          </mxGeometry>
        </mxCell>
        <mxCell id="BHHmnbVCYn1iok0aPhN5-57" value="" style="endArrow=classic;html=1;rounded=0;exitX=1.001;exitY=0.972;exitDx=0;exitDy=0;exitPerimeter=0;entryX=-0.12;entryY=0.2;entryDx=0;entryDy=0;entryPerimeter=0;" edge="1" parent="1" source="hBpxUwQ70FFy837Izs81-447" target="hBpxUwQ70FFy837Izs81-420">
          <mxGeometry width="50" height="50" relative="1" as="geometry">
            <mxPoint x="2290" y="1270" as="sourcePoint" />
            <mxPoint x="2340" y="1220" as="targetPoint" />
            <Array as="points">
              <mxPoint x="2370" y="1199" />
              <mxPoint x="2370" y="1260" />
              <mxPoint x="1660" y="1260" />
              <mxPoint x="1660" y="324" />
            </Array>
          </mxGeometry>
        </mxCell>
        <mxCell id="BHHmnbVCYn1iok0aPhN5-60" value="" style="endArrow=classic;html=1;rounded=0;exitX=1.008;exitY=0.95;exitDx=0;exitDy=0;exitPerimeter=0;strokeWidth=3;entryX=0.5;entryY=1;entryDx=0;entryDy=0;" edge="1" parent="1" source="BHHmnbVCYn1iok0aPhN5-26" target="BHHmnbVCYn1iok0aPhN5-61">
          <mxGeometry width="50" height="50" relative="1" as="geometry">
            <mxPoint x="2490" y="820" as="sourcePoint" />
            <mxPoint x="1550" y="440" as="targetPoint" />
            <Array as="points">
              <mxPoint x="2570" y="919" />
              <mxPoint x="2570" y="1480" />
              <mxPoint x="1360" y="1480" />
              <mxPoint x="1360" y="435" />
            </Array>
          </mxGeometry>
        </mxCell>
        <mxCell id="BHHmnbVCYn1iok0aPhN5-61" value="" style="shape=trapezoid;perimeter=trapezoidPerimeter;whiteSpace=wrap;html=1;fixedSize=1;direction=south;" vertex="1" parent="1">
          <mxGeometry x="1560" y="400" width="60" height="70" as="geometry" />
        </mxCell>
        <mxCell id="BHHmnbVCYn1iok0aPhN5-62" value="" style="endArrow=classic;html=1;rounded=0;strokeWidth=3;exitX=1.008;exitY=0.298;exitDx=0;exitDy=0;exitPerimeter=0;entryX=0.75;entryY=1;entryDx=0;entryDy=0;" edge="1" parent="1" source="hBpxUwQ70FFy837Izs81-447" target="BHHmnbVCYn1iok0aPhN5-61">
          <mxGeometry width="50" height="50" relative="1" as="geometry">
            <mxPoint x="2400" y="990" as="sourcePoint" />
            <mxPoint x="2450" y="940" as="targetPoint" />
            <Array as="points">
              <mxPoint x="2540" y="943" />
              <mxPoint x="2540" y="1450" />
              <mxPoint x="1400" y="1450" />
              <mxPoint x="1400" y="452" />
            </Array>
          </mxGeometry>
        </mxCell>
        <mxCell id="BHHmnbVCYn1iok0aPhN5-63" value="" style="endArrow=classic;html=1;rounded=0;strokeWidth=3;exitX=0.5;exitY=0;exitDx=0;exitDy=0;entryX=-0.003;entryY=0.628;entryDx=0;entryDy=0;entryPerimeter=0;" edge="1" parent="1" source="BHHmnbVCYn1iok0aPhN5-61" target="hBpxUwQ70FFy837Izs81-422">
          <mxGeometry width="50" height="50" relative="1" as="geometry">
            <mxPoint x="1710" y="470" as="sourcePoint" />
            <mxPoint x="1760" y="420" as="targetPoint" />
            <Array as="points">
              <mxPoint x="1810" y="435" />
              <mxPoint x="1810" y="413" />
            </Array>
          </mxGeometry>
        </mxCell>
        <mxCell id="BHHmnbVCYn1iok0aPhN5-64" value="" style="endArrow=classic;html=1;rounded=0;strokeWidth=3;entryX=1;entryY=0.5;entryDx=0;entryDy=0;" edge="1" parent="1" target="BHHmnbVCYn1iok0aPhN5-61">
          <mxGeometry width="50" height="50" relative="1" as="geometry">
            <mxPoint x="1590" y="580" as="sourcePoint" />
            <mxPoint x="1570" y="620" as="targetPoint" />
          </mxGeometry>
        </mxCell>
        <mxCell id="BHHmnbVCYn1iok0aPhN5-65" value="cache_offset_select" style="text;html=1;align=center;verticalAlign=middle;resizable=0;points=[];autosize=1;strokeColor=none;fillColor=none;" vertex="1" parent="1">
          <mxGeometry x="1530" y="580" width="120" height="20" as="geometry" />
        </mxCell>
        <mxCell id="BHHmnbVCYn1iok0aPhN5-66" value="0&lt;br&gt;mux&lt;br&gt;1" style="shape=trapezoid;perimeter=trapezoidPerimeter;whiteSpace=wrap;html=1;fixedSize=1;direction=south;" vertex="1" parent="1">
          <mxGeometry x="2510" y="330" width="60" height="80" as="geometry" />
        </mxCell>
        <mxCell id="BHHmnbVCYn1iok0aPhN5-67" value="" style="endArrow=classic;html=1;rounded=0;strokeWidth=3;entryX=0.75;entryY=1;entryDx=0;entryDy=0;" edge="1" parent="1" target="BHHmnbVCYn1iok0aPhN5-66">
          <mxGeometry width="50" height="50" relative="1" as="geometry">
            <mxPoint x="2420" y="390" as="sourcePoint" />
            <mxPoint x="2480" y="380" as="targetPoint" />
          </mxGeometry>
        </mxCell>
        <mxCell id="BHHmnbVCYn1iok0aPhN5-68" value="" style="endArrow=classic;html=1;rounded=0;strokeWidth=3;exitX=1.007;exitY=0.707;exitDx=0;exitDy=0;exitPerimeter=0;entryX=0.842;entryY=1;entryDx=0;entryDy=0;entryPerimeter=0;" edge="1" parent="1" source="BHHmnbVCYn1iok0aPhN5-25" target="BHHmnbVCYn1iok0aPhN5-69">
          <mxGeometry width="50" height="50" relative="1" as="geometry">
            <mxPoint x="2440" y="770" as="sourcePoint" />
            <mxPoint x="2470" y="410" as="targetPoint" />
            <Array as="points">
              <mxPoint x="2470" y="1004" />
            </Array>
          </mxGeometry>
        </mxCell>
        <mxCell id="BHHmnbVCYn1iok0aPhN5-69" value="{address[15:3], mem_offset[2:0]}" style="text;html=1;align=center;verticalAlign=middle;resizable=0;points=[];autosize=1;strokeColor=none;fillColor=none;" vertex="1" parent="1">
          <mxGeometry x="2310" y="370" width="190" height="20" as="geometry" />
        </mxCell>
        <mxCell id="BHHmnbVCYn1iok0aPhN5-70" value="" style="endArrow=classic;html=1;rounded=0;strokeWidth=3;exitX=0.5;exitY=0;exitDx=0;exitDy=0;entryX=0;entryY=0.5;entryDx=0;entryDy=0;entryPerimeter=0;" edge="1" parent="1" source="BHHmnbVCYn1iok0aPhN5-66" target="hBpxUwQ70FFy837Izs81-407">
          <mxGeometry width="50" height="50" relative="1" as="geometry">
            <mxPoint x="2650" y="350" as="sourcePoint" />
            <mxPoint x="2700" y="300" as="targetPoint" />
            <Array as="points">
              <mxPoint x="2600" y="370" />
              <mxPoint x="2600" y="330" />
            </Array>
          </mxGeometry>
        </mxCell>
        <mxCell id="BHHmnbVCYn1iok0aPhN5-71" value="" style="endArrow=classic;html=1;rounded=0;strokeWidth=1;entryX=1;entryY=0.5;entryDx=0;entryDy=0;" edge="1" parent="1" target="BHHmnbVCYn1iok0aPhN5-66">
          <mxGeometry width="50" height="50" relative="1" as="geometry">
            <mxPoint x="2540" y="470" as="sourcePoint" />
            <mxPoint x="2600" y="420" as="targetPoint" />
          </mxGeometry>
        </mxCell>
        <mxCell id="BHHmnbVCYn1iok0aPhN5-72" value="mem_offset_select" style="text;html=1;align=center;verticalAlign=middle;resizable=0;points=[];autosize=1;strokeColor=none;fillColor=none;" vertex="1" parent="1">
          <mxGeometry x="2481" y="470" width="120" height="20" as="geometry" />
        </mxCell>
        <mxCell id="BHHmnbVCYn1iok0aPhN5-74" value="" style="endArrow=classic;html=1;rounded=0;strokeWidth=1;exitX=1;exitY=0.5;exitDx=0;exitDy=0;exitPerimeter=0;" edge="1" parent="1" source="hBpxUwQ70FFy837Izs81-478">
          <mxGeometry width="50" height="50" relative="1" as="geometry">
            <mxPoint x="3200" y="1420" as="sourcePoint" />
            <mxPoint x="3010" y="1440" as="targetPoint" />
          </mxGeometry>
        </mxCell>
        <mxCell id="BHHmnbVCYn1iok0aPhN5-75" value="err" style="text;html=1;align=center;verticalAlign=middle;resizable=0;points=[];autosize=1;strokeColor=none;fillColor=none;" vertex="1" parent="1">
          <mxGeometry x="3035" y="1420" width="30" height="20" as="geometry" />
        </mxCell>
        <mxCell id="BHHmnbVCYn1iok0aPhN5-76" value="cache_rd_offset[2:0]" style="text;html=1;align=center;verticalAlign=middle;resizable=0;points=[];autosize=1;strokeColor=none;fillColor=none;" vertex="1" parent="1">
          <mxGeometry x="1460" y="470" width="120" height="20" as="geometry" />
        </mxCell>
        <mxCell id="BHHmnbVCYn1iok0aPhN5-77" value="&lt;span style=&quot;text-align: left&quot;&gt;cache_offset_select&lt;/span&gt;" style="text;html=1;align=center;verticalAlign=middle;resizable=0;points=[];autosize=1;strokeColor=none;fillColor=none;" vertex="1" parent="1">
          <mxGeometry x="1994" y="1188" width="120" height="20" as="geometry" />
        </mxCell>
        <mxCell id="BHHmnbVCYn1iok0aPhN5-78" value="&lt;span style=&quot;text-align: left&quot;&gt;mem_offset_select&lt;/span&gt;" style="text;html=1;align=center;verticalAlign=middle;resizable=0;points=[];autosize=1;strokeColor=none;fillColor=none;" vertex="1" parent="1">
          <mxGeometry x="2114" y="1188" width="120" height="20" as="geometry" />
        </mxCell>
        <mxCell id="BHHmnbVCYn1iok0aPhN5-79" value="" style="endArrow=classic;html=1;rounded=0;strokeWidth=2;exitX=0.204;exitY=1.001;exitDx=0;exitDy=0;exitPerimeter=0;" edge="1" parent="1" source="hBpxUwQ70FFy837Izs81-447">
          <mxGeometry width="50" height="50" relative="1" as="geometry">
            <mxPoint x="2060" y="1270" as="sourcePoint" />
            <mxPoint x="2053" y="1240" as="targetPoint" />
          </mxGeometry>
        </mxCell>
        <mxCell id="BHHmnbVCYn1iok0aPhN5-80" value="" style="endArrow=classic;html=1;rounded=0;strokeWidth=2;exitX=0.613;exitY=1.004;exitDx=0;exitDy=0;exitPerimeter=0;" edge="1" parent="1" source="hBpxUwQ70FFy837Izs81-447">
          <mxGeometry width="50" height="50" relative="1" as="geometry">
            <mxPoint x="2180" y="1290" as="sourcePoint" />
            <mxPoint x="2180" y="1240" as="targetPoint" />
          </mxGeometry>
        </mxCell>
        <mxCell id="BHHmnbVCYn1iok0aPhN5-81" value="Halt" style="text;html=1;align=center;verticalAlign=middle;resizable=0;points=[];autosize=1;strokeColor=none;fillColor=none;fontSize=10;fontColor=#000000;" vertex="1" parent="1">
          <mxGeometry x="1520" y="755" width="30" height="20" as="geometry" />
        </mxCell>
        <mxCell id="BHHmnbVCYn1iok0aPhN5-82" value="" style="endArrow=classic;html=1;rounded=0;strokeColor=#000000;strokeWidth=3;exitX=0.994;exitY=0.5;exitDx=0;exitDy=0;exitPerimeter=0;" edge="1" parent="1" source="hBpxUwQ70FFy837Izs81-429">
          <mxGeometry width="50" height="50" relative="1" as="geometry">
            <mxPoint x="2310" y="510" as="sourcePoint" />
            <mxPoint x="2400" y="280" as="targetPoint" />
            <Array as="points">
              <mxPoint x="2300" y="460" />
              <mxPoint x="2300" y="280" />
              <mxPoint x="2370" y="280" />
            </Array>
          </mxGeometry>
        </mxCell>
        <mxCell id="BHHmnbVCYn1iok0aPhN5-83" value="" style="endArrow=classic;html=1;rounded=0;strokeColor=#000000;strokeWidth=3;" edge="1" parent="1">
          <mxGeometry width="50" height="50" relative="1" as="geometry">
            <mxPoint x="1600" y="370" as="sourcePoint" />
            <mxPoint x="2400" y="260" as="targetPoint" />
            <Array as="points">
              <mxPoint x="1600" y="260" />
            </Array>
          </mxGeometry>
        </mxCell>
        <mxCell id="BHHmnbVCYn1iok0aPhN5-84" value="0&lt;br&gt;mux&lt;br&gt;1" style="shape=trapezoid;perimeter=trapezoidPerimeter;whiteSpace=wrap;html=1;fixedSize=1;direction=south;" vertex="1" parent="1">
          <mxGeometry x="2401" y="234.61" width="60" height="70" as="geometry" />
        </mxCell>
        <mxCell id="BHHmnbVCYn1iok0aPhN5-85" value="" style="endArrow=classic;html=1;rounded=0;strokeColor=#000000;strokeWidth=3;" edge="1" parent="1" target="BHHmnbVCYn1iok0aPhN5-84">
          <mxGeometry width="50" height="50" relative="1" as="geometry">
            <mxPoint x="2430" y="340" as="sourcePoint" />
            <mxPoint x="2460" y="300" as="targetPoint" />
          </mxGeometry>
        </mxCell>
        <mxCell id="BHHmnbVCYn1iok0aPhN5-86" value="tag_select" style="text;html=1;align=center;verticalAlign=middle;resizable=0;points=[];autosize=1;strokeColor=none;fillColor=none;" vertex="1" parent="1">
          <mxGeometry x="2430" y="310" width="70" height="20" as="geometry" />
        </mxCell>
        <mxCell id="BHHmnbVCYn1iok0aPhN5-88" value="" style="endArrow=classic;html=1;rounded=0;strokeColor=#000000;strokeWidth=3;exitX=0.5;exitY=0;exitDx=0;exitDy=0;" edge="1" parent="1" source="BHHmnbVCYn1iok0aPhN5-84">
          <mxGeometry width="50" height="50" relative="1" as="geometry">
            <mxPoint x="2490" y="290" as="sourcePoint" />
            <mxPoint x="2600" y="330" as="targetPoint" />
            <Array as="points">
              <mxPoint x="2600" y="270" />
            </Array>
          </mxGeometry>
        </mxCell>
        <mxCell id="BHHmnbVCYn1iok0aPhN5-89" value="tag_select" style="text;html=1;align=center;verticalAlign=middle;resizable=0;points=[];autosize=1;strokeColor=none;fillColor=none;" vertex="1" parent="1">
          <mxGeometry x="1994" y="1150" width="70" height="20" as="geometry" />
        </mxCell>
        <mxCell id="BHHmnbVCYn1iok0aPhN5-90" value="" style="endArrow=classic;html=1;rounded=0;strokeColor=#000000;strokeWidth=3;exitX=-0.009;exitY=0.874;exitDx=0;exitDy=0;exitPerimeter=0;" edge="1" parent="1" source="hBpxUwQ70FFy837Izs81-447">
          <mxGeometry width="50" height="50" relative="1" as="geometry">
            <mxPoint x="1920" y="1200" as="sourcePoint" />
            <mxPoint x="1940" y="1162" as="targetPoint" />
          </mxGeometry>
        </mxCell>
        <mxCell id="BHHmnbVCYn1iok0aPhN5-93" value="cache_select" style="text;html=1;align=center;verticalAlign=middle;resizable=0;points=[];autosize=1;strokeColor=none;fillColor=none;" vertex="1" parent="1">
          <mxGeometry x="1040" y="360" width="90" height="20" as="geometry" />
        </mxCell>
      </root>
    </mxGraphModel>
  </diagram>
</mxfile>
